<svg width="8" height="9" viewBox="0 0 8 9" fill="none" xmlns="http://www.w3.org/2000/svg">
<g clip-path="url(#clip0_20_8893)">
<path fill-rule="evenodd" clip-rule="evenodd" d="M3.60803 1.7806C3.62935 1.71298 3.67168 1.65392 3.72886 1.61199C3.78604 1.57007 3.8551 1.54746 3.926 1.54746C3.9969 1.54746 4.06596 1.57007 4.12314 1.61199C4.18032 1.65392 4.22265 1.71298 4.24397 1.7806L4.81818 3.54643H6.67045C6.74389 3.54366 6.81622 3.565 6.87639 3.6072C6.93656 3.6494 6.98126 3.71014 7.00365 3.78013C7.02605 3.85013 7.02492 3.92553 7.00043 3.99482C6.97594 4.06412 6.92944 4.12348 6.86803 4.16386L5.3646 5.25361L5.9388 7.02254C5.96151 7.08992 5.96209 7.16279 5.94044 7.23052C5.91879 7.29825 5.87606 7.35729 5.81848 7.39901C5.7609 7.44073 5.69149 7.46294 5.62039 7.46242C5.54928 7.46189 5.48021 7.43865 5.42326 7.39608L3.91674 6.29397L2.41331 7.38682C2.35636 7.42938 2.28728 7.45263 2.21618 7.45316C2.14508 7.45368 2.07567 7.43146 2.01809 7.38975C1.96051 7.34803 1.91777 7.28899 1.89613 7.22126C1.87448 7.15353 1.87505 7.08066 1.89776 7.01327L2.47197 5.24435L0.968536 4.1546C0.907128 4.11422 0.860626 4.05485 0.836136 3.98556C0.811645 3.91627 0.810513 3.84087 0.832911 3.77087C0.85531 3.70088 0.900008 3.64014 0.960176 3.59794C1.02034 3.55574 1.09267 3.5344 1.16611 3.53717H3.01839L3.60803 1.7806Z" stroke="#C3D4E9" stroke-width="0.926137" stroke-linecap="round" stroke-linejoin="round"/>
</g>
<defs>
<clipPath id="clip0_20_8893">
<rect width="7.4091" height="7.4091" fill="red" transform="translate(0.212173 0.795807)"/>
</clipPath>
</defs>
</svg>
