<svg width="8" height="9" viewBox="0 0 8 9" fill="none" xmlns="http://www.w3.org/2000/svg">
<g clip-path="url(#clip0_20_8892)">
<path fill-rule="evenodd" clip-rule="evenodd" d="M3.72924 1.7806C3.75056 1.71298 3.79289 1.65392 3.85007 1.61199C3.90725 1.57007 3.97631 1.54746 4.04721 1.54746C4.11811 1.54746 4.18717 1.57007 4.24435 1.61199C4.30153 1.65392 4.34386 1.71298 4.36518 1.7806L4.93939 3.54643H6.79166C6.8651 3.54366 6.93743 3.565 6.9976 3.6072C7.05777 3.6494 7.10246 3.71014 7.12486 3.78013C7.14726 3.85013 7.14613 3.92553 7.12164 3.99482C7.09715 4.06412 7.05065 4.12348 6.98924 4.16386L5.48581 5.25361L6.06001 7.02254C6.08272 7.08992 6.08329 7.16279 6.06165 7.23052C6.04 7.29825 5.99727 7.35729 5.93969 7.39901C5.88211 7.44073 5.8127 7.46294 5.74159 7.46242C5.67049 7.46189 5.60142 7.43865 5.54446 7.39608L4.03795 6.29397L2.53452 7.38682C2.47756 7.42938 2.40849 7.45263 2.33739 7.45316C2.26628 7.45368 2.19688 7.43146 2.1393 7.38975C2.08172 7.34803 2.03898 7.28899 2.01733 7.22126C1.99569 7.15353 1.99626 7.08066 2.01897 7.01327L2.59317 5.24435L1.08974 4.1546C1.02834 4.11422 0.981834 4.05485 0.957344 3.98556C0.932853 3.91627 0.931721 3.84087 0.954119 3.77087C0.976518 3.70088 1.02122 3.64014 1.08138 3.59794C1.14155 3.55574 1.21388 3.5344 1.28732 3.53717H3.13959L3.72924 1.7806Z" fill="#FBAD39"/>
</g>
<defs>
<clipPath id="clip0_20_8892">
<rect width="7.4091" height="7.4091" fill="white" transform="translate(0.333382 0.795807)"/>
</clipPath>
</defs>
</svg>
