<svg width="56" height="10" viewBox="0 0 56 10" fill="none" xmlns="http://www.w3.org/2000/svg">
<path d="M0.574152 9.77679L0.574152 0.37379H2.21494L5.73634 5.15733H4.95381L8.39947 0.37379H10.0403V9.77679L8.31112 9.77679V2.33012L8.98006 2.4942L5.40818 7.2525H5.20624L1.72271 2.4942L2.29067 2.33012L2.29067 9.77679H0.574152ZM16.8663 9.92825C16.1763 9.92825 15.5326 9.80624 14.9352 9.56223C14.3378 9.31821 13.8161 8.97743 13.3702 8.53989C12.9242 8.10234 12.575 7.58907 12.3226 7.00007C12.0786 6.40265 11.9566 5.75896 11.9566 5.06898C11.9566 4.37059 12.0786 3.7269 12.3226 3.13789C12.5666 2.54889 12.9116 2.03562 13.3575 1.59807C13.8035 1.16053 14.3252 0.823956 14.9226 0.588355C15.52 0.34434 16.1679 0.222332 16.8663 0.222332C17.5647 0.222332 18.2126 0.34434 18.81 0.588355C19.4074 0.83237 19.9291 1.17315 20.3751 1.6107C20.821 2.03983 21.166 2.54889 21.41 3.13789C21.6625 3.7269 21.7887 4.37059 21.7887 5.06898C21.7887 5.75896 21.6625 6.40265 21.41 7.00007C21.1576 7.58907 20.8084 8.10234 20.3625 8.53989C19.9165 8.97743 19.3948 9.31821 18.7974 9.56223C18.2084 9.80624 17.5647 9.92825 16.8663 9.92825ZM16.8663 8.36319C17.3291 8.36319 17.754 8.28325 18.1411 8.12338C18.5281 7.95509 18.8647 7.7237 19.1508 7.4292C19.4453 7.1347 19.6683 6.7855 19.8197 6.38162C19.9796 5.97773 20.0596 5.54018 20.0596 5.06898C20.0596 4.59778 19.9796 4.16444 19.8197 3.76897C19.6683 3.36508 19.4453 3.01589 19.1508 2.72139C18.8647 2.41847 18.5281 2.18708 18.1411 2.0272C17.754 1.86733 17.3291 1.7874 16.8663 1.7874C16.4119 1.7874 15.9912 1.86733 15.6042 2.0272C15.2171 2.18708 14.8763 2.41847 14.5818 2.72139C14.2957 3.01589 14.0728 3.36508 13.9129 3.76897C13.753 4.16444 13.6731 4.59778 13.6731 5.06898C13.6731 5.54018 13.753 5.97773 13.9129 6.38162C14.0728 6.7855 14.2957 7.1347 14.5818 7.4292C14.8763 7.7237 15.2171 7.95509 15.6042 8.12338C15.9912 8.28325 16.4119 8.36319 16.8663 8.36319ZM23.7094 9.77679V0.37379H27.2056C27.8451 0.37379 28.4088 0.49159 28.8969 0.727192C29.3933 0.954378 29.7804 1.29095 30.058 1.73691C30.3357 2.17445 30.4745 2.70876 30.4745 3.33984C30.4745 3.98774 30.3189 4.53888 30.0075 4.99325C29.7046 5.44763 29.2923 5.7842 28.7706 6.00297L30.9289 9.77679H28.9852L26.6755 5.64957L27.7862 6.30589L25.4259 6.30589V9.77679H23.7094ZM25.4259 4.79131L27.2308 4.79131C27.5422 4.79131 27.8114 4.73241 28.0386 4.61461C28.2658 4.48839 28.4425 4.3159 28.5687 4.09713C28.6949 3.87836 28.758 3.62593 28.758 3.33984C28.758 3.04534 28.6949 2.79291 28.5687 2.58255C28.4425 2.36378 28.2658 2.19549 28.0386 2.07769C27.8114 1.95148 27.5422 1.88837 27.2308 1.88837H25.4259V4.79131ZM32.4483 9.77679V0.37379H38.696V1.88837H34.1648V4.29907H38.4435V5.81365H34.1648V8.26222H38.696V9.77679H32.4483ZM40.3491 9.77679V0.37379L41.687 0.37379L46.8618 7.34085L46.1676 7.47968V0.37379H47.8841V9.77679H46.5336L41.4345 2.75925L42.0656 2.62041V9.77679H40.3491ZM51.7647 9.77679V1.88837L49.3288 1.88837V0.37379L55.8919 0.37379V1.88837H53.4939V9.77679H51.7647Z" fill="#3563E9"/>
</svg>
