<svg width="28" height="28" viewBox="0 0 28 28" fill="none" xmlns="http://www.w3.org/2000/svg">
<rect width="28" height="28" rx="14" fill="#3563E9"/>
<path d="M14.0001 18.3337C16.3933 18.3337 18.3334 16.3936 18.3334 14.0003C18.3334 11.6071 16.3933 9.66699 14.0001 9.66699C11.6068 9.66699 9.66675 11.6071 9.66675 14.0003C9.66675 16.3936 11.6068 18.3337 14.0001 18.3337Z" fill="white"/>
<path d="M18.7599 18.7597L18.6733 18.673M18.6733 9.32634L18.7599 9.23967L18.6733 9.32634ZM9.23992 18.7597L9.32659 18.673L9.23992 18.7597ZM13.9999 7.38634V7.33301V7.38634ZM13.9999 20.6663V20.613V20.6663ZM7.38659 13.9997H7.33325H7.38659ZM20.6666 13.9997H20.6133H20.6666ZM9.32659 9.32634L9.23992 9.23967L9.32659 9.32634Z" stroke="white" stroke-width="1.87" stroke-linecap="round" stroke-linejoin="round"/>
</svg>
